<mxfile host="app.diagrams.net" modified="2023-10-11T19:39:33.858Z" agent="Mozilla/5.0 (Windows NT 10.0; Win64; x64; rv:109.0) Gecko/20100101 Firefox/118.0" etag="hwrWidKnm0Cs0kTrtBYi" version="22.0.4" type="device">
  <diagram name="Pagina-1" id="8IX72cmcx5TzSddWPjB9">
    <mxGraphModel dx="1434" dy="774" grid="1" gridSize="10" guides="1" tooltips="1" connect="1" arrows="1" fold="1" page="1" pageScale="1" pageWidth="827" pageHeight="1169" math="0" shadow="0">
      <root>
        <mxCell id="0" />
        <mxCell id="1" parent="0" />
        <mxCell id="VSseAvjNPlLdA79Erq7V-1" value="&lt;div&gt;Administrator&lt;/div&gt;" style="shape=umlActor;verticalLabelPosition=bottom;verticalAlign=top;html=1;outlineConnect=0;" vertex="1" parent="1">
          <mxGeometry x="80" y="200" width="40" height="80" as="geometry" />
        </mxCell>
        <mxCell id="VSseAvjNPlLdA79Erq7V-2" value="&lt;div&gt;Computer operator&lt;/div&gt;" style="shape=umlActor;verticalLabelPosition=bottom;verticalAlign=top;html=1;outlineConnect=0;" vertex="1" parent="1">
          <mxGeometry x="80" y="480" width="40" height="80" as="geometry" />
        </mxCell>
        <mxCell id="VSseAvjNPlLdA79Erq7V-4" value="&lt;div&gt;LDAP&lt;/div&gt;" style="shape=umlActor;verticalLabelPosition=bottom;verticalAlign=top;html=1;outlineConnect=0;" vertex="1" parent="1">
          <mxGeometry x="640" y="200" width="40" height="80" as="geometry" />
        </mxCell>
        <mxCell id="VSseAvjNPlLdA79Erq7V-5" value="&lt;div&gt;NSS&lt;/div&gt;" style="shape=umlActor;verticalLabelPosition=bottom;verticalAlign=top;html=1;outlineConnect=0;" vertex="1" parent="1">
          <mxGeometry x="640" y="520" width="40" height="80" as="geometry" />
        </mxCell>
        <mxCell id="VSseAvjNPlLdA79Erq7V-12" value="Login" style="ellipse;whiteSpace=wrap;html=1;fillColor=none;" vertex="1" parent="1">
          <mxGeometry x="490" y="210" width="80" height="40" as="geometry" />
        </mxCell>
        <mxCell id="VSseAvjNPlLdA79Erq7V-13" value="" style="endArrow=classic;html=1;rounded=0;exitX=1;exitY=0.3333333333333333;exitDx=0;exitDy=0;exitPerimeter=0;" edge="1" parent="1" source="VSseAvjNPlLdA79Erq7V-1">
          <mxGeometry width="50" height="50" relative="1" as="geometry">
            <mxPoint x="230" y="240" as="sourcePoint" />
            <mxPoint x="240" y="160" as="targetPoint" />
          </mxGeometry>
        </mxCell>
        <mxCell id="VSseAvjNPlLdA79Erq7V-16" value="" style="endArrow=classic;html=1;rounded=0;exitX=1;exitY=0.3333333333333333;exitDx=0;exitDy=0;exitPerimeter=0;" edge="1" parent="1" source="VSseAvjNPlLdA79Erq7V-1">
          <mxGeometry width="50" height="50" relative="1" as="geometry">
            <mxPoint x="210" y="300" as="sourcePoint" />
            <mxPoint x="240" y="227" as="targetPoint" />
          </mxGeometry>
        </mxCell>
        <mxCell id="VSseAvjNPlLdA79Erq7V-17" value="" style="endArrow=classic;html=1;rounded=0;exitX=1;exitY=0.3333333333333333;exitDx=0;exitDy=0;exitPerimeter=0;" edge="1" parent="1" source="VSseAvjNPlLdA79Erq7V-1">
          <mxGeometry width="50" height="50" relative="1" as="geometry">
            <mxPoint x="250" y="360" as="sourcePoint" />
            <mxPoint x="240" y="320" as="targetPoint" />
          </mxGeometry>
        </mxCell>
        <mxCell id="VSseAvjNPlLdA79Erq7V-19" value="&lt;div&gt;Create User&lt;/div&gt;" style="ellipse;whiteSpace=wrap;html=1;fillColor=none;" vertex="1" parent="1">
          <mxGeometry x="240" y="140" width="80" height="40" as="geometry" />
        </mxCell>
        <mxCell id="VSseAvjNPlLdA79Erq7V-20" value="&lt;div&gt;Modify User&lt;/div&gt;" style="ellipse;whiteSpace=wrap;html=1;fillColor=none;" vertex="1" parent="1">
          <mxGeometry x="240" y="210" width="80" height="40" as="geometry" />
        </mxCell>
        <mxCell id="VSseAvjNPlLdA79Erq7V-21" value="Delete User" style="ellipse;whiteSpace=wrap;html=1;fillColor=none;" vertex="1" parent="1">
          <mxGeometry x="240" y="300" width="80" height="40" as="geometry" />
        </mxCell>
        <mxCell id="VSseAvjNPlLdA79Erq7V-25" value="" style="endArrow=classic;html=1;rounded=0;entryX=1;entryY=0.5;entryDx=0;entryDy=0;exitX=0;exitY=0.3333333333333333;exitDx=0;exitDy=0;exitPerimeter=0;" edge="1" parent="1" source="VSseAvjNPlLdA79Erq7V-4" target="VSseAvjNPlLdA79Erq7V-12">
          <mxGeometry width="50" height="50" relative="1" as="geometry">
            <mxPoint x="640" y="230" as="sourcePoint" />
            <mxPoint x="580" y="130" as="targetPoint" />
            <Array as="points" />
          </mxGeometry>
        </mxCell>
        <mxCell id="VSseAvjNPlLdA79Erq7V-26" value="" style="endArrow=classic;html=1;rounded=0;exitX=1;exitY=0.5;exitDx=0;exitDy=0;entryX=0;entryY=0.5;entryDx=0;entryDy=0;" edge="1" parent="1" source="VSseAvjNPlLdA79Erq7V-19" target="VSseAvjNPlLdA79Erq7V-12">
          <mxGeometry relative="1" as="geometry">
            <mxPoint x="340" y="440" as="sourcePoint" />
            <mxPoint x="440" y="440" as="targetPoint" />
          </mxGeometry>
        </mxCell>
        <mxCell id="VSseAvjNPlLdA79Erq7V-27" value="Include" style="edgeLabel;resizable=0;html=1;align=center;verticalAlign=middle;" connectable="0" vertex="1" parent="VSseAvjNPlLdA79Erq7V-26">
          <mxGeometry relative="1" as="geometry" />
        </mxCell>
        <mxCell id="VSseAvjNPlLdA79Erq7V-28" value="" style="endArrow=classic;html=1;rounded=0;exitX=1;exitY=0.5;exitDx=0;exitDy=0;entryX=0;entryY=0.5;entryDx=0;entryDy=0;" edge="1" parent="1" source="VSseAvjNPlLdA79Erq7V-20" target="VSseAvjNPlLdA79Erq7V-12">
          <mxGeometry relative="1" as="geometry">
            <mxPoint x="330" y="170" as="sourcePoint" />
            <mxPoint x="500" y="240" as="targetPoint" />
          </mxGeometry>
        </mxCell>
        <mxCell id="VSseAvjNPlLdA79Erq7V-29" value="Include" style="edgeLabel;resizable=0;html=1;align=center;verticalAlign=middle;" connectable="0" vertex="1" parent="VSseAvjNPlLdA79Erq7V-28">
          <mxGeometry relative="1" as="geometry" />
        </mxCell>
        <mxCell id="VSseAvjNPlLdA79Erq7V-30" value="" style="endArrow=classic;html=1;rounded=0;exitX=1;exitY=0.5;exitDx=0;exitDy=0;entryX=0;entryY=0.5;entryDx=0;entryDy=0;" edge="1" parent="1" source="VSseAvjNPlLdA79Erq7V-21" target="VSseAvjNPlLdA79Erq7V-12">
          <mxGeometry relative="1" as="geometry">
            <mxPoint x="340" y="180" as="sourcePoint" />
            <mxPoint x="510" y="250" as="targetPoint" />
          </mxGeometry>
        </mxCell>
        <mxCell id="VSseAvjNPlLdA79Erq7V-31" value="Include" style="edgeLabel;resizable=0;html=1;align=center;verticalAlign=middle;" connectable="0" vertex="1" parent="VSseAvjNPlLdA79Erq7V-30">
          <mxGeometry relative="1" as="geometry" />
        </mxCell>
        <mxCell id="VSseAvjNPlLdA79Erq7V-33" value="&lt;div&gt;Install a&lt;/div&gt;&lt;div&gt;program&lt;br&gt;&lt;/div&gt;" style="ellipse;whiteSpace=wrap;html=1;fillColor=none;" vertex="1" parent="1">
          <mxGeometry x="210" y="400" width="80" height="40" as="geometry" />
        </mxCell>
        <mxCell id="VSseAvjNPlLdA79Erq7V-34" value="&lt;div&gt;Ping&lt;/div&gt;&lt;div&gt;Computer&lt;br&gt;&lt;/div&gt;" style="ellipse;whiteSpace=wrap;html=1;fillColor=none;" vertex="1" parent="1">
          <mxGeometry x="360" y="720" width="80" height="40" as="geometry" />
        </mxCell>
        <mxCell id="VSseAvjNPlLdA79Erq7V-35" value="Reboot a computer" style="ellipse;whiteSpace=wrap;html=1;fillColor=none;" vertex="1" parent="1">
          <mxGeometry x="350" y="660" width="80" height="40" as="geometry" />
        </mxCell>
        <mxCell id="VSseAvjNPlLdA79Erq7V-36" value="Generate SSH key pair" style="ellipse;whiteSpace=wrap;html=1;fillColor=none;" vertex="1" parent="1">
          <mxGeometry x="440" y="80" width="80" height="40" as="geometry" />
        </mxCell>
        <mxCell id="VSseAvjNPlLdA79Erq7V-37" value="&lt;div&gt;Update&lt;/div&gt;&lt;div&gt;Repositories&lt;br&gt;&lt;/div&gt;" style="ellipse;whiteSpace=wrap;html=1;fillColor=none;" vertex="1" parent="1">
          <mxGeometry x="500" y="480" width="80" height="40" as="geometry" />
        </mxCell>
        <mxCell id="VSseAvjNPlLdA79Erq7V-38" value="&lt;div&gt;Clear&lt;/div&gt;&lt;div&gt;Cache&lt;/div&gt;" style="ellipse;whiteSpace=wrap;html=1;fillColor=none;" vertex="1" parent="1">
          <mxGeometry x="350" y="540" width="80" height="40" as="geometry" />
        </mxCell>
        <mxCell id="VSseAvjNPlLdA79Erq7V-39" value="&lt;div&gt;Update&lt;/div&gt;&lt;div&gt;Programs&lt;br&gt;&lt;/div&gt;" style="ellipse;whiteSpace=wrap;html=1;fillColor=none;" vertex="1" parent="1">
          <mxGeometry x="190" y="470" width="80" height="40" as="geometry" />
        </mxCell>
        <mxCell id="VSseAvjNPlLdA79Erq7V-40" value="" style="endArrow=classic;html=1;rounded=0;exitX=1;exitY=0.3333333333333333;exitDx=0;exitDy=0;exitPerimeter=0;entryX=0;entryY=0.5;entryDx=0;entryDy=0;" edge="1" parent="1" source="VSseAvjNPlLdA79Erq7V-2" target="VSseAvjNPlLdA79Erq7V-33">
          <mxGeometry width="50" height="50" relative="1" as="geometry">
            <mxPoint x="150" y="520" as="sourcePoint" />
            <mxPoint x="200" y="470" as="targetPoint" />
          </mxGeometry>
        </mxCell>
        <mxCell id="VSseAvjNPlLdA79Erq7V-43" value="" style="endArrow=classic;html=1;rounded=0;exitX=1;exitY=0.5;exitDx=0;exitDy=0;entryX=0;entryY=0.5;entryDx=0;entryDy=0;" edge="1" parent="1" source="VSseAvjNPlLdA79Erq7V-39" target="VSseAvjNPlLdA79Erq7V-37">
          <mxGeometry relative="1" as="geometry">
            <mxPoint x="330" y="330" as="sourcePoint" />
            <mxPoint x="440" y="500" as="targetPoint" />
          </mxGeometry>
        </mxCell>
        <mxCell id="VSseAvjNPlLdA79Erq7V-44" value="Include" style="edgeLabel;resizable=0;html=1;align=center;verticalAlign=middle;" connectable="0" vertex="1" parent="VSseAvjNPlLdA79Erq7V-43">
          <mxGeometry relative="1" as="geometry" />
        </mxCell>
        <mxCell id="VSseAvjNPlLdA79Erq7V-53" value="" style="endArrow=classic;html=1;rounded=0;exitX=1;exitY=0.5;exitDx=0;exitDy=0;entryX=0.5;entryY=1;entryDx=0;entryDy=0;" edge="1" parent="1" source="VSseAvjNPlLdA79Erq7V-39" target="VSseAvjNPlLdA79Erq7V-12">
          <mxGeometry relative="1" as="geometry">
            <mxPoint x="330" y="330" as="sourcePoint" />
            <mxPoint x="500" y="240" as="targetPoint" />
          </mxGeometry>
        </mxCell>
        <mxCell id="VSseAvjNPlLdA79Erq7V-54" value="Include" style="edgeLabel;resizable=0;html=1;align=center;verticalAlign=middle;" connectable="0" vertex="1" parent="VSseAvjNPlLdA79Erq7V-53">
          <mxGeometry relative="1" as="geometry" />
        </mxCell>
        <mxCell id="VSseAvjNPlLdA79Erq7V-55" value="" style="endArrow=classic;html=1;rounded=0;exitX=1;exitY=0.5;exitDx=0;exitDy=0;entryX=0.5;entryY=1;entryDx=0;entryDy=0;" edge="1" parent="1" source="VSseAvjNPlLdA79Erq7V-33" target="VSseAvjNPlLdA79Erq7V-12">
          <mxGeometry relative="1" as="geometry">
            <mxPoint x="330" y="510" as="sourcePoint" />
            <mxPoint x="540" y="260" as="targetPoint" />
          </mxGeometry>
        </mxCell>
        <mxCell id="VSseAvjNPlLdA79Erq7V-56" value="Include" style="edgeLabel;resizable=0;html=1;align=center;verticalAlign=middle;" connectable="0" vertex="1" parent="VSseAvjNPlLdA79Erq7V-55">
          <mxGeometry relative="1" as="geometry" />
        </mxCell>
        <mxCell id="VSseAvjNPlLdA79Erq7V-57" value="" style="endArrow=classic;html=1;rounded=0;exitX=1;exitY=0.3333333333333333;exitDx=0;exitDy=0;exitPerimeter=0;entryX=0;entryY=0.5;entryDx=0;entryDy=0;" edge="1" parent="1" source="VSseAvjNPlLdA79Erq7V-2" target="VSseAvjNPlLdA79Erq7V-38">
          <mxGeometry width="50" height="50" relative="1" as="geometry">
            <mxPoint x="190" y="680" as="sourcePoint" />
            <mxPoint x="240" y="630" as="targetPoint" />
          </mxGeometry>
        </mxCell>
        <mxCell id="VSseAvjNPlLdA79Erq7V-61" value="" style="endArrow=classic;html=1;rounded=0;exitX=0.5;exitY=0;exitDx=0;exitDy=0;entryX=0.5;entryY=1;entryDx=0;entryDy=0;" edge="1" parent="1" source="VSseAvjNPlLdA79Erq7V-38" target="VSseAvjNPlLdA79Erq7V-12">
          <mxGeometry relative="1" as="geometry">
            <mxPoint x="330" y="510" as="sourcePoint" />
            <mxPoint x="540" y="260" as="targetPoint" />
          </mxGeometry>
        </mxCell>
        <mxCell id="VSseAvjNPlLdA79Erq7V-62" value="Include" style="edgeLabel;resizable=0;html=1;align=center;verticalAlign=middle;" connectable="0" vertex="1" parent="VSseAvjNPlLdA79Erq7V-61">
          <mxGeometry relative="1" as="geometry" />
        </mxCell>
        <mxCell id="VSseAvjNPlLdA79Erq7V-66" value="" style="endArrow=classic;html=1;rounded=0;exitX=0.5;exitY=0;exitDx=0;exitDy=0;entryX=0;entryY=0.5;entryDx=0;entryDy=0;" edge="1" parent="1" source="VSseAvjNPlLdA79Erq7V-19" target="VSseAvjNPlLdA79Erq7V-36">
          <mxGeometry relative="1" as="geometry">
            <mxPoint x="190" y="40" as="sourcePoint" />
            <mxPoint x="290" y="40" as="targetPoint" />
          </mxGeometry>
        </mxCell>
        <mxCell id="VSseAvjNPlLdA79Erq7V-67" value="Extend" style="edgeLabel;resizable=0;html=1;align=center;verticalAlign=middle;" connectable="0" vertex="1" parent="VSseAvjNPlLdA79Erq7V-66">
          <mxGeometry relative="1" as="geometry" />
        </mxCell>
        <mxCell id="VSseAvjNPlLdA79Erq7V-69" value="" style="endArrow=classic;html=1;rounded=0;entryX=0;entryY=0.5;entryDx=0;entryDy=0;exitX=1;exitY=0.3333333333333333;exitDx=0;exitDy=0;exitPerimeter=0;" edge="1" parent="1" source="VSseAvjNPlLdA79Erq7V-2" target="VSseAvjNPlLdA79Erq7V-34">
          <mxGeometry width="50" height="50" relative="1" as="geometry">
            <mxPoint x="170" y="550" as="sourcePoint" />
            <mxPoint x="230" y="700" as="targetPoint" />
          </mxGeometry>
        </mxCell>
        <mxCell id="VSseAvjNPlLdA79Erq7V-70" value="" style="endArrow=classic;html=1;rounded=0;exitX=1;exitY=0.3333333333333333;exitDx=0;exitDy=0;exitPerimeter=0;entryX=0;entryY=0.5;entryDx=0;entryDy=0;" edge="1" parent="1" source="VSseAvjNPlLdA79Erq7V-2" target="VSseAvjNPlLdA79Erq7V-35">
          <mxGeometry width="50" height="50" relative="1" as="geometry">
            <mxPoint x="160" y="740" as="sourcePoint" />
            <mxPoint x="210" y="690" as="targetPoint" />
          </mxGeometry>
        </mxCell>
        <mxCell id="VSseAvjNPlLdA79Erq7V-73" value="" style="endArrow=classic;html=1;rounded=0;exitX=1;exitY=0;exitDx=0;exitDy=0;entryX=0.5;entryY=1;entryDx=0;entryDy=0;" edge="1" parent="1" source="VSseAvjNPlLdA79Erq7V-35" target="VSseAvjNPlLdA79Erq7V-12">
          <mxGeometry relative="1" as="geometry">
            <mxPoint x="330" y="590" as="sourcePoint" />
            <mxPoint x="568" y="254" as="targetPoint" />
          </mxGeometry>
        </mxCell>
        <mxCell id="VSseAvjNPlLdA79Erq7V-74" value="Include" style="edgeLabel;resizable=0;html=1;align=center;verticalAlign=middle;" connectable="0" vertex="1" parent="VSseAvjNPlLdA79Erq7V-73">
          <mxGeometry relative="1" as="geometry" />
        </mxCell>
        <mxCell id="VSseAvjNPlLdA79Erq7V-76" value="" style="endArrow=classic;html=1;rounded=0;exitX=0;exitY=0.3333333333333333;exitDx=0;exitDy=0;exitPerimeter=0;entryX=1;entryY=0.5;entryDx=0;entryDy=0;" edge="1" parent="1" source="VSseAvjNPlLdA79Erq7V-5" target="VSseAvjNPlLdA79Erq7V-37">
          <mxGeometry width="50" height="50" relative="1" as="geometry">
            <mxPoint x="590" y="730" as="sourcePoint" />
            <mxPoint x="640" y="680" as="targetPoint" />
          </mxGeometry>
        </mxCell>
        <mxCell id="VSseAvjNPlLdA79Erq7V-77" value="" style="endArrow=classic;html=1;rounded=0;exitX=0;exitY=0.3333333333333333;exitDx=0;exitDy=0;exitPerimeter=0;entryX=1;entryY=0.5;entryDx=0;entryDy=0;" edge="1" parent="1" source="VSseAvjNPlLdA79Erq7V-5" target="VSseAvjNPlLdA79Erq7V-38">
          <mxGeometry width="50" height="50" relative="1" as="geometry">
            <mxPoint x="620" y="670" as="sourcePoint" />
            <mxPoint x="670" y="620" as="targetPoint" />
          </mxGeometry>
        </mxCell>
        <mxCell id="VSseAvjNPlLdA79Erq7V-78" value="" style="endArrow=classic;html=1;rounded=0;exitX=0;exitY=0.3333333333333333;exitDx=0;exitDy=0;exitPerimeter=0;entryX=1;entryY=0.5;entryDx=0;entryDy=0;" edge="1" parent="1" source="VSseAvjNPlLdA79Erq7V-5" target="VSseAvjNPlLdA79Erq7V-35">
          <mxGeometry width="50" height="50" relative="1" as="geometry">
            <mxPoint x="560" y="690" as="sourcePoint" />
            <mxPoint x="610" y="640" as="targetPoint" />
          </mxGeometry>
        </mxCell>
        <mxCell id="VSseAvjNPlLdA79Erq7V-92" value="" style="endArrow=classic;html=1;rounded=0;exitX=1;exitY=0.3333333333333333;exitDx=0;exitDy=0;exitPerimeter=0;entryX=0;entryY=0.5;entryDx=0;entryDy=0;" edge="1" parent="1" source="VSseAvjNPlLdA79Erq7V-2" target="VSseAvjNPlLdA79Erq7V-39">
          <mxGeometry width="50" height="50" relative="1" as="geometry">
            <mxPoint x="-40" y="470" as="sourcePoint" />
            <mxPoint x="10" y="420" as="targetPoint" />
          </mxGeometry>
        </mxCell>
        <mxCell id="VSseAvjNPlLdA79Erq7V-94" value="" style="endArrow=classic;html=1;rounded=0;exitX=1;exitY=0.5;exitDx=0;exitDy=0;entryX=0;entryY=0.5;entryDx=0;entryDy=0;" edge="1" parent="1" source="VSseAvjNPlLdA79Erq7V-33" target="VSseAvjNPlLdA79Erq7V-37">
          <mxGeometry relative="1" as="geometry">
            <mxPoint x="270" y="510" as="sourcePoint" />
            <mxPoint x="450" y="510" as="targetPoint" />
          </mxGeometry>
        </mxCell>
        <mxCell id="VSseAvjNPlLdA79Erq7V-95" value="Include" style="edgeLabel;resizable=0;html=1;align=center;verticalAlign=middle;" connectable="0" vertex="1" parent="VSseAvjNPlLdA79Erq7V-94">
          <mxGeometry relative="1" as="geometry" />
        </mxCell>
        <mxCell id="VSseAvjNPlLdA79Erq7V-99" value="" style="endArrow=classic;html=1;rounded=0;exitX=1;exitY=0.5;exitDx=0;exitDy=0;entryX=0.5;entryY=0;entryDx=0;entryDy=0;" edge="1" parent="1" source="VSseAvjNPlLdA79Erq7V-39" target="VSseAvjNPlLdA79Erq7V-35">
          <mxGeometry relative="1" as="geometry">
            <mxPoint x="260" y="510" as="sourcePoint" />
            <mxPoint x="480" y="510" as="targetPoint" />
          </mxGeometry>
        </mxCell>
        <mxCell id="VSseAvjNPlLdA79Erq7V-100" value="Extend" style="edgeLabel;resizable=0;html=1;align=center;verticalAlign=middle;" connectable="0" vertex="1" parent="VSseAvjNPlLdA79Erq7V-99">
          <mxGeometry relative="1" as="geometry" />
        </mxCell>
        <mxCell id="VSseAvjNPlLdA79Erq7V-107" value="" style="rounded=0;whiteSpace=wrap;html=1;fillColor=none;" vertex="1" parent="1">
          <mxGeometry x="160" y="65" width="460" height="710" as="geometry" />
        </mxCell>
      </root>
    </mxGraphModel>
  </diagram>
</mxfile>
